<svg width="400" height="385" viewBox="0 0 400 385" fill="none" xmlns="http://www.w3.org/2000/svg">
<rect width="400" height="385" fill="#83B3D3" fill-opacity="0.12"/>
<path d="M229.6 101.462H229.5H204.8C218.6 94.5576 219.7 90.1546 219.2 87.7529C218 83.7501 213.5 80.748 209.2 82.3491C203.6 84.4506 202.1 92.7564 200.6 98.7606C198.6 92.6563 196.8 84.9509 192.4 81.0482C191.1 79.9474 189.3 78.7466 186.6 79.0468C182.6 79.4471 176.8 84.4506 179.1 90.0545C181.4 95.4583 188.8 98.8607 193.7 101.563H171.7H171.4C169.8 101.563 168.5 102.863 168.5 104.465V115.773C168.5 117.374 169.8 118.675 171.4 118.675H171.7V151.998V154.4V155H229.5V154.5V151.998V118.574H229.6C231.2 118.574 232.5 117.274 232.5 115.672V104.365C232.5 102.763 231.2 101.462 229.6 101.462ZM210.9 84.8508C213 84.5506 215.9 86.1518 216.2 88.0531C216.6 90.8551 212.8 93.3568 211.1 94.4576C208.6 96.1588 206.2 97.0594 203.8 98.5604C204.7 94.8579 206.3 85.5513 210.9 84.8508ZM188 94.8579C185.8 93.3568 181.5 90.4548 181.6 87.0524C181.7 83.4499 187.3 80.4478 190.4 83.1497C194.3 86.552 196.1 94.2574 197.5 99.7613C194.3 98.2602 191.2 96.9593 188 94.8579ZM194 151.998H174.6V118.574H194V151.998ZM194 115.472H171.5V104.465H194V115.472ZM204.2 115.472V118.474V151.998H197V118.574V115.572V104.565H204.2V115.472ZM226.5 151.998H207.1V118.574H226.5V151.998ZM229.4 115.472H207.1V104.465H229.4V115.472Z" fill="#83B3D3"/>
<path d="M154.175 205.304C153.663 205.672 153.007 205.936 152.207 206.096C151.423 206.256 150.615 206.336 149.783 206.336C148.775 206.336 147.815 206.184 146.903 205.88C146.007 205.56 145.215 205.056 144.527 204.368C143.839 203.664 143.287 202.76 142.871 201.656C142.471 200.536 142.271 199.184 142.271 197.6C142.271 195.952 142.495 194.576 142.943 193.472C143.407 192.352 143.999 191.456 144.719 190.784C145.455 190.096 146.271 189.608 147.167 189.32C148.063 189.016 148.959 188.864 149.855 188.864C150.815 188.864 151.623 188.928 152.279 189.056C152.951 189.184 153.503 189.336 153.935 189.512L153.287 192.296C152.919 192.12 152.479 191.992 151.967 191.912C151.471 191.832 150.863 191.792 150.143 191.792C148.815 191.792 147.743 192.264 146.927 193.208C146.127 194.152 145.727 195.616 145.727 197.6C145.727 198.464 145.823 199.256 146.015 199.976C146.207 200.68 146.495 201.288 146.879 201.8C147.279 202.296 147.767 202.688 148.343 202.976C148.935 203.248 149.615 203.384 150.383 203.384C151.103 203.384 151.711 203.312 152.207 203.168C152.703 203.024 153.135 202.84 153.503 202.616L154.175 205.304ZM160.837 196.616L161.317 198.8H161.461L161.845 196.544L164.365 189.2H167.749L163.285 200.816C162.933 201.728 162.589 202.52 162.253 203.192C161.933 203.864 161.581 204.424 161.197 204.872C160.829 205.304 160.413 205.632 159.949 205.856C159.485 206.064 158.941 206.168 158.317 206.168C157.789 206.168 157.357 206.128 157.021 206.048C156.701 205.984 156.349 205.832 155.965 205.592L156.805 202.928C157.077 203.072 157.325 203.16 157.549 203.192C157.773 203.224 158.013 203.24 158.269 203.24C159.021 203.24 159.549 202.648 159.853 201.464L153.565 189.2H157.429L160.837 196.616ZM180.166 193.112C180.166 193.528 180.11 193.944 179.998 194.36C179.902 194.776 179.734 195.16 179.494 195.512C179.254 195.848 178.942 196.152 178.558 196.424C178.174 196.68 177.71 196.872 177.166 197V197.144C177.646 197.224 178.102 197.36 178.534 197.552C178.966 197.744 179.342 198.008 179.662 198.344C179.982 198.68 180.23 199.088 180.406 199.568C180.598 200.048 180.694 200.616 180.694 201.272C180.694 202.136 180.51 202.888 180.142 203.528C179.774 204.152 179.278 204.664 178.654 205.064C178.046 205.464 177.35 205.76 176.566 205.952C175.782 206.144 174.974 206.24 174.142 206.24C173.87 206.24 173.518 206.24 173.086 206.24C172.67 206.24 172.214 206.224 171.718 206.192C171.238 206.176 170.742 206.144 170.23 206.096C169.734 206.048 169.278 205.976 168.862 205.88V189.32C169.166 189.272 169.51 189.224 169.894 189.176C170.294 189.128 170.718 189.088 171.166 189.056C171.614 189.024 172.07 189 172.534 188.984C173.014 188.968 173.486 188.96 173.95 188.96C174.734 188.96 175.494 189.024 176.23 189.152C176.982 189.264 177.646 189.472 178.222 189.776C178.814 190.08 179.286 190.504 179.638 191.048C179.99 191.592 180.166 192.28 180.166 193.112ZM174.166 203.528C174.566 203.528 174.95 203.48 175.318 203.384C175.702 203.288 176.038 203.144 176.326 202.952C176.614 202.744 176.846 202.488 177.022 202.184C177.198 201.88 177.286 201.52 177.286 201.104C177.286 200.576 177.182 200.16 176.974 199.856C176.766 199.552 176.494 199.32 176.158 199.16C175.822 198.984 175.446 198.872 175.03 198.824C174.614 198.776 174.198 198.752 173.782 198.752H172.03V203.384C172.11 203.416 172.238 203.44 172.414 203.456C172.59 203.472 172.774 203.488 172.966 203.504C173.174 203.504 173.382 203.512 173.59 203.528C173.814 203.528 174.006 203.528 174.166 203.528ZM173.086 196.256C173.31 196.256 173.566 196.248 173.854 196.232C174.158 196.216 174.406 196.192 174.598 196.16C175.206 195.968 175.726 195.68 176.158 195.296C176.606 194.912 176.83 194.408 176.83 193.784C176.83 193.368 176.75 193.024 176.59 192.752C176.43 192.48 176.214 192.264 175.942 192.104C175.686 191.944 175.39 191.832 175.054 191.768C174.718 191.704 174.366 191.672 173.998 191.672C173.582 191.672 173.198 191.68 172.846 191.696C172.494 191.712 172.222 191.736 172.03 191.768V196.256H173.086ZM183.042 189.2H193.002V192.128H186.33V196.04H192.402V198.968H186.33V203.072H193.122V206H183.042V189.2ZM205.013 198.968H198.869V206H195.581V189.2H198.869V196.04H205.013V189.2H208.301V206H205.013V198.968ZM221.005 196.688L221.197 194.504H221.077L219.949 196.76L213.685 206H211.213V189.2H214.501V198.344L214.261 200.6H214.405L215.581 198.272L221.845 189.2H224.293V206H221.005V196.688ZM227.198 189.368C227.87 189.24 228.606 189.144 229.406 189.08C230.222 189 231.03 188.96 231.83 188.96C232.662 188.96 233.494 189.032 234.326 189.176C235.174 189.304 235.934 189.576 236.606 189.992C237.278 190.392 237.822 190.96 238.238 191.696C238.67 192.416 238.886 193.36 238.886 194.528C238.886 195.584 238.702 196.48 238.334 197.216C237.966 197.936 237.478 198.528 236.87 198.992C236.262 199.456 235.566 199.792 234.782 200C234.014 200.208 233.214 200.312 232.382 200.312C232.302 200.312 232.174 200.312 231.998 200.312C231.822 200.312 231.638 200.312 231.446 200.312C231.254 200.296 231.062 200.28 230.87 200.264C230.694 200.248 230.566 200.232 230.486 200.216V206H227.198V189.368ZM232.094 191.792C231.774 191.792 231.47 191.808 231.182 191.84C230.894 191.856 230.662 191.88 230.486 191.912V197.36C230.55 197.376 230.646 197.392 230.774 197.408C230.902 197.424 231.038 197.44 231.182 197.456C231.326 197.456 231.462 197.456 231.59 197.456C231.734 197.456 231.838 197.456 231.902 197.456C232.334 197.456 232.758 197.416 233.174 197.336C233.606 197.256 233.99 197.112 234.326 196.904C234.662 196.68 234.926 196.376 235.118 195.992C235.326 195.608 235.43 195.104 235.43 194.48C235.43 193.952 235.334 193.52 235.142 193.184C234.95 192.832 234.694 192.552 234.374 192.344C234.07 192.136 233.718 191.992 233.318 191.912C232.918 191.832 232.51 191.792 232.094 191.792ZM253.892 189.2H257.18V206H253.892V189.2ZM240.932 189.2H244.22V195.224C244.396 195.192 244.676 195.152 245.06 195.104C245.444 195.056 245.82 195.032 246.188 195.032C246.988 195.032 247.748 195.112 248.468 195.272C249.204 195.432 249.844 195.72 250.388 196.136C250.932 196.536 251.364 197.088 251.684 197.792C252.004 198.48 252.164 199.352 252.164 200.408C252.164 202.36 251.596 203.824 250.46 204.8C249.324 205.76 247.636 206.24 245.396 206.24C245.172 206.24 244.884 206.232 244.532 206.216C244.18 206.216 243.796 206.2 243.38 206.168C242.98 206.136 242.564 206.096 242.132 206.048C241.7 206 241.3 205.928 240.932 205.832V189.2ZM245.636 203.312C246.548 203.312 247.284 203.104 247.844 202.688C248.42 202.256 248.708 201.544 248.708 200.552C248.708 200.024 248.628 199.592 248.468 199.256C248.308 198.92 248.092 198.656 247.82 198.464C247.548 198.272 247.228 198.144 246.86 198.08C246.492 198 246.092 197.96 245.66 197.96C245.436 197.96 245.172 197.984 244.868 198.032C244.564 198.064 244.348 198.104 244.22 198.152V203.168C244.396 203.216 244.604 203.256 244.844 203.288C245.1 203.304 245.364 203.312 245.636 203.312Z" fill="black"/>
<path d="M121.041 252.222H114.993V258H113.499V245.4H114.993V250.89H121.041V245.4H122.535V258H121.041V252.222ZM132.019 257.28C131.659 257.568 131.203 257.796 130.651 257.964C130.111 258.132 129.535 258.216 128.923 258.216C128.239 258.216 127.645 258.108 127.141 257.892C126.637 257.664 126.223 257.346 125.899 256.938C125.575 256.518 125.335 256.02 125.179 255.444C125.023 254.868 124.945 254.22 124.945 253.5C124.945 251.964 125.287 250.794 125.971 249.99C126.655 249.186 127.633 248.784 128.905 248.784C129.313 248.784 129.721 248.832 130.129 248.928C130.537 249.012 130.903 249.18 131.227 249.432C131.551 249.684 131.815 250.044 132.019 250.512C132.223 250.968 132.325 251.574 132.325 252.33C132.325 252.726 132.289 253.164 132.217 253.644H126.438C126.438 254.172 126.493 254.64 126.601 255.048C126.709 255.456 126.877 255.804 127.105 256.092C127.333 256.368 127.627 256.584 127.987 256.74C128.359 256.884 128.809 256.956 129.337 256.956C129.745 256.956 130.153 256.884 130.561 256.74C130.969 256.596 131.275 256.428 131.479 256.236L132.019 257.28ZM128.923 250.044C128.215 250.044 127.645 250.23 127.213 250.602C126.793 250.974 126.541 251.61 126.457 252.51H130.921C130.921 251.598 130.747 250.962 130.399 250.602C130.051 250.23 129.559 250.044 128.923 250.044ZM144.708 250.26H141.882V258H140.442V250.26H137.616V249H144.708V250.26ZM145.353 253.5C145.353 251.976 145.689 250.812 146.361 250.008C147.045 249.192 148.023 248.784 149.295 248.784C149.967 248.784 150.549 248.898 151.041 249.126C151.545 249.342 151.959 249.66 152.283 250.08C152.607 250.488 152.847 250.986 153.003 251.574C153.159 252.15 153.237 252.792 153.237 253.5C153.237 255.024 152.895 256.194 152.211 257.01C151.539 257.814 150.567 258.216 149.295 258.216C148.623 258.216 148.035 258.108 147.531 257.892C147.039 257.664 146.631 257.346 146.307 256.938C145.983 256.518 145.743 256.02 145.587 255.444C145.431 254.856 145.353 254.208 145.353 253.5ZM146.847 253.5C146.847 253.956 146.889 254.394 146.973 254.814C147.069 255.234 147.213 255.6 147.405 255.912C147.597 256.224 147.849 256.476 148.161 256.668C148.473 256.86 148.851 256.956 149.295 256.956C150.927 256.968 151.743 255.816 151.743 253.5C151.743 253.032 151.695 252.588 151.599 252.168C151.515 251.748 151.377 251.382 151.185 251.07C150.993 250.758 150.741 250.512 150.429 250.332C150.117 250.14 149.739 250.044 149.295 250.044C147.663 250.032 146.847 251.184 146.847 253.5ZM160.244 250.26H157.634C157.598 250.764 157.562 251.31 157.526 251.898C157.49 252.474 157.436 253.056 157.364 253.644C157.292 254.22 157.196 254.778 157.076 255.318C156.956 255.846 156.8 256.314 156.608 256.722C156.428 257.13 156.2 257.46 155.924 257.712C155.66 257.952 155.342 258.072 154.97 258.072C154.742 258.072 154.544 258.06 154.376 258.036C154.208 258.012 154.058 257.97 153.926 257.91L154.142 256.704C154.286 256.752 154.442 256.776 154.61 256.776C154.85 256.776 155.066 256.674 155.258 256.47C155.45 256.266 155.618 255.882 155.762 255.318C155.906 254.742 156.026 253.95 156.122 252.942C156.218 251.934 156.284 250.62 156.32 249H161.684V258H160.244V250.26ZM165.894 256.74C166.338 256.812 166.764 256.848 167.172 256.848C167.928 256.848 168.486 256.704 168.846 256.416C169.206 256.116 169.386 255.696 169.386 255.156C169.386 254.676 169.212 254.28 168.864 253.968C168.516 253.656 167.97 253.5 167.226 253.5C167.022 253.5 166.8 253.506 166.56 253.518C166.32 253.53 166.098 253.566 165.894 253.626V256.74ZM165.894 252.438C166.182 252.39 166.458 252.36 166.722 252.348C166.986 252.324 167.238 252.312 167.478 252.312C168.102 252.312 168.63 252.384 169.062 252.528C169.494 252.66 169.842 252.846 170.106 253.086C170.382 253.326 170.58 253.614 170.7 253.95C170.82 254.274 170.88 254.622 170.88 254.994C170.88 256.086 170.55 256.878 169.89 257.37C169.242 257.862 168.228 258.108 166.848 258.108C166.08 258.108 165.282 258.072 164.454 258V249H165.894V252.438ZM175.072 253.95H174.244V258H172.804V249H174.244V253.068L175.018 252.816L177.898 249H179.464L176.674 252.618L175.918 253.212L176.854 253.932L179.86 258H178.078L175.072 253.95ZM180.702 253.5C180.702 251.976 181.038 250.812 181.71 250.008C182.394 249.192 183.372 248.784 184.644 248.784C185.316 248.784 185.898 248.898 186.39 249.126C186.894 249.342 187.308 249.66 187.632 250.08C187.956 250.488 188.196 250.986 188.352 251.574C188.508 252.15 188.586 252.792 188.586 253.5C188.586 255.024 188.244 256.194 187.56 257.01C186.888 257.814 185.916 258.216 184.644 258.216C183.972 258.216 183.384 258.108 182.88 257.892C182.388 257.664 181.98 257.346 181.656 256.938C181.332 256.518 181.092 256.02 180.936 255.444C180.78 254.856 180.702 254.208 180.702 253.5ZM182.196 253.5C182.196 253.956 182.238 254.394 182.322 254.814C182.418 255.234 182.562 255.6 182.754 255.912C182.946 256.224 183.198 256.476 183.51 256.668C183.822 256.86 184.2 256.956 184.644 256.956C186.276 256.968 187.092 255.816 187.092 253.5C187.092 253.032 187.044 252.588 186.948 252.168C186.864 251.748 186.726 251.382 186.534 251.07C186.342 250.758 186.09 250.512 185.778 250.332C185.466 250.14 185.088 250.044 184.644 250.044C183.012 250.032 182.196 251.184 182.196 253.5ZM197.924 253.95H197.096V258H195.656V249H197.096V253.068L197.87 252.816L200.75 249H202.316L199.526 252.618L198.77 253.212L199.706 253.932L202.712 258H200.93L197.924 253.95ZM209.867 252.672L209.921 251.556H209.867L209.129 252.708L205.079 258H204.251V249H205.691V254.49L205.637 255.552H205.709L206.411 254.436L210.461 249H211.307V258H209.867V252.672ZM219.819 250.26H216.993V258H215.553V250.26H212.727V249H219.819V250.26ZM221.105 249.666C221.561 249.39 222.089 249.186 222.689 249.054C223.301 248.922 223.937 248.856 224.597 248.856C225.221 248.856 225.719 248.94 226.091 249.108C226.475 249.276 226.763 249.498 226.955 249.774C227.159 250.038 227.291 250.332 227.351 250.656C227.423 250.98 227.459 251.304 227.459 251.628C227.459 252.348 227.441 253.05 227.405 253.734C227.369 254.418 227.351 255.066 227.351 255.678C227.351 256.122 227.369 256.542 227.405 256.938C227.441 257.334 227.507 257.7 227.603 258.036H226.541L226.163 256.776H226.073C225.965 256.944 225.827 257.112 225.659 257.28C225.503 257.436 225.311 257.58 225.083 257.712C224.855 257.832 224.591 257.934 224.291 258.018C223.991 258.102 223.649 258.144 223.265 258.144C222.881 258.144 222.521 258.084 222.185 257.964C221.861 257.844 221.579 257.676 221.339 257.46C221.099 257.232 220.907 256.962 220.763 256.65C220.631 256.338 220.565 255.984 220.565 255.588C220.565 255.06 220.673 254.622 220.889 254.274C221.105 253.914 221.405 253.632 221.789 253.428C222.185 253.212 222.653 253.062 223.193 252.978C223.745 252.882 224.351 252.834 225.011 252.834C225.179 252.834 225.341 252.834 225.497 252.834C225.665 252.834 225.833 252.846 226.001 252.87C226.037 252.51 226.055 252.186 226.055 251.898C226.055 251.238 225.923 250.776 225.659 250.512C225.395 250.248 224.915 250.116 224.219 250.116C224.015 250.116 223.793 250.134 223.553 250.17C223.325 250.194 223.085 250.236 222.833 250.296C222.593 250.344 222.359 250.41 222.131 250.494C221.915 250.566 221.723 250.65 221.555 250.746L221.105 249.666ZM223.661 256.884C223.997 256.884 224.297 256.842 224.561 256.758C224.825 256.662 225.053 256.548 225.245 256.416C225.437 256.272 225.593 256.116 225.713 255.948C225.845 255.78 225.941 255.618 226.001 255.462V253.968C225.833 253.956 225.659 253.95 225.479 253.95C225.311 253.938 225.143 253.932 224.975 253.932C224.603 253.932 224.237 253.956 223.877 254.004C223.529 254.04 223.217 254.118 222.941 254.238C222.677 254.346 222.461 254.502 222.293 254.706C222.137 254.898 222.059 255.144 222.059 255.444C222.059 255.864 222.209 256.212 222.509 256.488C222.809 256.752 223.193 256.884 223.661 256.884ZM235.795 252.672L235.849 251.556H235.795L235.057 252.708L231.007 258H230.179V249H231.619V254.49L231.565 255.552H231.637L232.339 254.436L236.389 249H237.235V258H235.795V252.672ZM232.249 245.364C232.369 245.916 232.573 246.3 232.861 246.516C233.161 246.732 233.503 246.84 233.887 246.84C234.271 246.84 234.613 246.726 234.913 246.498C235.213 246.27 235.417 245.898 235.525 245.382L236.605 245.724C236.497 246.42 236.185 246.954 235.669 247.326C235.165 247.698 234.559 247.884 233.851 247.884C233.527 247.884 233.203 247.842 232.879 247.758C232.567 247.674 232.285 247.548 232.033 247.38C231.781 247.212 231.565 246.996 231.385 246.732C231.205 246.468 231.085 246.156 231.025 245.796L232.249 245.364ZM246.143 257.406C245.783 257.67 245.357 257.868 244.865 258C244.373 258.144 243.857 258.216 243.317 258.216C242.621 258.216 242.033 258.108 241.553 257.892C241.073 257.664 240.677 257.346 240.365 256.938C240.065 256.518 239.843 256.02 239.699 255.444C239.567 254.856 239.501 254.208 239.501 253.5C239.501 251.976 239.837 250.812 240.509 250.008C241.181 249.192 242.147 248.784 243.407 248.784C243.983 248.784 244.469 248.832 244.865 248.928C245.273 249.012 245.639 249.138 245.963 249.306L245.549 250.548C245.273 250.392 244.967 250.272 244.631 250.188C244.295 250.092 243.935 250.044 243.551 250.044C241.847 250.044 240.995 251.196 240.995 253.5C240.995 253.956 241.037 254.394 241.121 254.814C241.217 255.222 241.367 255.588 241.571 255.912C241.787 256.224 242.063 256.476 242.399 256.668C242.747 256.86 243.173 256.956 243.677 256.956C244.109 256.956 244.493 256.89 244.829 256.758C245.177 256.626 245.459 256.476 245.675 256.308L246.143 257.406ZM250.394 253.95H249.566V258H248.126V249H249.566V253.068L250.34 252.816L253.22 249H254.786L251.996 252.618L251.24 253.212L252.176 253.932L255.182 258H253.4L250.394 253.95ZM256.025 253.5C256.025 251.976 256.361 250.812 257.033 250.008C257.717 249.192 258.695 248.784 259.967 248.784C260.639 248.784 261.221 248.898 261.713 249.126C262.217 249.342 262.631 249.66 262.955 250.08C263.279 250.488 263.519 250.986 263.675 251.574C263.831 252.15 263.909 252.792 263.909 253.5C263.909 255.024 263.567 256.194 262.883 257.01C262.211 257.814 261.239 258.216 259.967 258.216C259.295 258.216 258.707 258.108 258.203 257.892C257.711 257.664 257.303 257.346 256.979 256.938C256.655 256.518 256.415 256.02 256.259 255.444C256.103 254.856 256.025 254.208 256.025 253.5ZM257.519 253.5C257.519 253.956 257.561 254.394 257.645 254.814C257.741 255.234 257.885 255.6 258.077 255.912C258.269 256.224 258.521 256.476 258.833 256.668C259.145 256.86 259.523 256.956 259.967 256.956C261.599 256.968 262.415 255.816 262.415 253.5C262.415 253.032 262.367 252.588 262.271 252.168C262.187 251.748 262.049 251.382 261.857 251.07C261.665 250.758 261.413 250.512 261.101 250.332C260.789 250.14 260.411 250.044 259.967 250.044C258.335 250.032 257.519 251.184 257.519 253.5ZM271.435 250.26H267.619V258H266.179V249H271.435V250.26ZM272.038 253.5C272.038 251.976 272.374 250.812 273.046 250.008C273.73 249.192 274.708 248.784 275.98 248.784C276.652 248.784 277.234 248.898 277.726 249.126C278.23 249.342 278.644 249.66 278.968 250.08C279.292 250.488 279.532 250.986 279.688 251.574C279.844 252.15 279.922 252.792 279.922 253.5C279.922 255.024 279.58 256.194 278.896 257.01C278.224 257.814 277.252 258.216 275.98 258.216C275.308 258.216 274.72 258.108 274.216 257.892C273.724 257.664 273.316 257.346 272.992 256.938C272.668 256.518 272.428 256.02 272.272 255.444C272.116 254.856 272.038 254.208 272.038 253.5ZM273.532 253.5C273.532 253.956 273.574 254.394 273.658 254.814C273.754 255.234 273.898 255.6 274.09 255.912C274.282 256.224 274.534 256.476 274.846 256.668C275.158 256.86 275.536 256.956 275.98 256.956C277.612 256.968 278.428 255.816 278.428 253.5C278.428 253.032 278.38 252.588 278.284 252.168C278.2 251.748 278.062 251.382 277.87 251.07C277.678 250.758 277.426 250.512 277.114 250.332C276.802 250.14 276.424 250.044 275.98 250.044C274.348 250.032 273.532 251.184 273.532 253.5ZM281.478 257.226C281.478 256.938 281.574 256.704 281.766 256.524C281.958 256.344 282.204 256.254 282.504 256.254C282.876 256.254 283.176 256.386 283.404 256.65C283.644 256.914 283.764 257.298 283.764 257.802C283.764 258.234 283.704 258.612 283.584 258.936C283.464 259.26 283.308 259.536 283.116 259.764C282.924 260.004 282.714 260.196 282.486 260.34C282.258 260.496 282.03 260.61 281.802 260.682L281.352 259.98C281.784 259.812 282.102 259.548 282.306 259.188C282.522 258.84 282.63 258.486 282.63 258.126C282.522 258.162 282.42 258.18 282.324 258.18C282.084 258.18 281.88 258.102 281.712 257.946C281.556 257.778 281.478 257.538 281.478 257.226ZM104.484 275.022H100.416V279H98.9758V270H100.416V273.762H104.484V270H105.924V279H104.484V275.022ZM108.193 274.5C108.193 272.976 108.529 271.812 109.201 271.008C109.885 270.192 110.863 269.784 112.135 269.784C112.807 269.784 113.389 269.898 113.881 270.126C114.385 270.342 114.799 270.66 115.123 271.08C115.447 271.488 115.687 271.986 115.843 272.574C115.999 273.15 116.077 273.792 116.077 274.5C116.077 276.024 115.735 277.194 115.051 278.01C114.379 278.814 113.407 279.216 112.135 279.216C111.463 279.216 110.875 279.108 110.371 278.892C109.879 278.664 109.471 278.346 109.147 277.938C108.823 277.518 108.583 277.02 108.427 276.444C108.271 275.856 108.193 275.208 108.193 274.5ZM109.687 274.5C109.687 274.956 109.729 275.394 109.813 275.814C109.909 276.234 110.053 276.6 110.245 276.912C110.437 277.224 110.689 277.476 111.001 277.668C111.313 277.86 111.691 277.956 112.135 277.956C113.767 277.968 114.583 276.816 114.583 274.5C114.583 274.032 114.535 273.588 114.439 273.168C114.355 272.748 114.217 272.382 114.025 272.07C113.833 271.758 113.581 271.512 113.269 271.332C112.957 271.14 112.579 271.044 112.135 271.044C110.503 271.032 109.687 272.184 109.687 274.5ZM128.762 273.672L128.816 272.556H128.762L128.024 273.708L123.974 279H123.146V270H124.586V275.49L124.532 276.552H124.604L125.306 275.436L129.356 270H130.202V279H128.762V273.672ZM143.279 275.022H139.211V279H137.771V270H139.211V273.762H143.279V270H144.719V279H143.279V275.022ZM147.347 270.666C147.803 270.39 148.331 270.186 148.931 270.054C149.543 269.922 150.179 269.856 150.839 269.856C151.463 269.856 151.961 269.94 152.333 270.108C152.717 270.276 153.005 270.498 153.197 270.774C153.401 271.038 153.533 271.332 153.593 271.656C153.665 271.98 153.701 272.304 153.701 272.628C153.701 273.348 153.683 274.05 153.647 274.734C153.611 275.418 153.593 276.066 153.593 276.678C153.593 277.122 153.611 277.542 153.647 277.938C153.683 278.334 153.749 278.7 153.845 279.036H152.783L152.405 277.776H152.315C152.207 277.944 152.069 278.112 151.901 278.28C151.745 278.436 151.553 278.58 151.325 278.712C151.097 278.832 150.833 278.934 150.533 279.018C150.233 279.102 149.891 279.144 149.507 279.144C149.123 279.144 148.763 279.084 148.427 278.964C148.103 278.844 147.821 278.676 147.581 278.46C147.341 278.232 147.149 277.962 147.005 277.65C146.873 277.338 146.807 276.984 146.807 276.588C146.807 276.06 146.915 275.622 147.131 275.274C147.347 274.914 147.647 274.632 148.031 274.428C148.427 274.212 148.895 274.062 149.435 273.978C149.987 273.882 150.593 273.834 151.253 273.834C151.421 273.834 151.583 273.834 151.739 273.834C151.907 273.834 152.075 273.846 152.243 273.87C152.279 273.51 152.297 273.186 152.297 272.898C152.297 272.238 152.165 271.776 151.901 271.512C151.637 271.248 151.157 271.116 150.461 271.116C150.257 271.116 150.035 271.134 149.795 271.17C149.567 271.194 149.327 271.236 149.075 271.296C148.835 271.344 148.601 271.41 148.373 271.494C148.157 271.566 147.965 271.65 147.797 271.746L147.347 270.666ZM149.903 277.884C150.239 277.884 150.539 277.842 150.803 277.758C151.067 277.662 151.295 277.548 151.487 277.416C151.679 277.272 151.835 277.116 151.955 276.948C152.087 276.78 152.183 276.618 152.243 276.462V274.968C152.075 274.956 151.901 274.95 151.721 274.95C151.553 274.938 151.385 274.932 151.217 274.932C150.845 274.932 150.479 274.956 150.119 275.004C149.771 275.04 149.459 275.118 149.183 275.238C148.919 275.346 148.703 275.502 148.535 275.706C148.379 275.898 148.301 276.144 148.301 276.444C148.301 276.864 148.451 277.212 148.751 277.488C149.051 277.752 149.435 277.884 149.903 277.884ZM162.559 278.406C162.199 278.67 161.773 278.868 161.281 279C160.789 279.144 160.273 279.216 159.733 279.216C159.037 279.216 158.449 279.108 157.969 278.892C157.489 278.664 157.093 278.346 156.781 277.938C156.481 277.518 156.259 277.02 156.115 276.444C155.983 275.856 155.917 275.208 155.917 274.5C155.917 272.976 156.253 271.812 156.925 271.008C157.597 270.192 158.563 269.784 159.823 269.784C160.399 269.784 160.885 269.832 161.281 269.928C161.689 270.012 162.055 270.138 162.379 270.306L161.965 271.548C161.689 271.392 161.383 271.272 161.047 271.188C160.711 271.092 160.351 271.044 159.967 271.044C158.263 271.044 157.411 272.196 157.411 274.5C157.411 274.956 157.453 275.394 157.537 275.814C157.633 276.222 157.783 276.588 157.987 276.912C158.203 277.224 158.479 277.476 158.815 277.668C159.163 277.86 159.589 277.956 160.093 277.956C160.525 277.956 160.909 277.89 161.245 277.758C161.593 277.626 161.875 277.476 162.091 277.308L162.559 278.406ZM170.003 271.26H167.177V279H165.737V271.26H162.911V270H170.003V271.26ZM170.648 274.5C170.648 272.976 170.984 271.812 171.656 271.008C172.34 270.192 173.318 269.784 174.59 269.784C175.262 269.784 175.844 269.898 176.336 270.126C176.84 270.342 177.254 270.66 177.578 271.08C177.902 271.488 178.142 271.986 178.298 272.574C178.454 273.15 178.532 273.792 178.532 274.5C178.532 276.024 178.19 277.194 177.506 278.01C176.834 278.814 175.862 279.216 174.59 279.216C173.918 279.216 173.33 279.108 172.826 278.892C172.334 278.664 171.926 278.346 171.602 277.938C171.278 277.518 171.038 277.02 170.882 276.444C170.726 275.856 170.648 275.208 170.648 274.5ZM172.142 274.5C172.142 274.956 172.184 275.394 172.268 275.814C172.364 276.234 172.508 276.6 172.7 276.912C172.892 277.224 173.144 277.476 173.456 277.668C173.768 277.86 174.146 277.956 174.59 277.956C176.222 277.968 177.038 276.816 177.038 274.5C177.038 274.032 176.99 273.588 176.894 273.168C176.81 272.748 176.672 272.382 176.48 272.07C176.288 271.758 176.036 271.512 175.724 271.332C175.412 271.14 175.034 271.044 174.59 271.044C172.958 271.032 172.142 272.184 172.142 274.5ZM185.284 275.274L183.898 275.49L181.522 279H179.776L181.936 275.922L182.656 275.256C182.032 275.16 181.498 274.908 181.054 274.5C180.622 274.092 180.406 273.54 180.406 272.844C180.406 272.304 180.496 271.842 180.676 271.458C180.868 271.074 181.138 270.756 181.486 270.504C181.834 270.252 182.248 270.072 182.728 269.964C183.208 269.844 183.748 269.784 184.348 269.784C184.792 269.784 185.206 269.814 185.59 269.874C185.974 269.934 186.352 270 186.724 270.072V279H185.284V275.274ZM185.284 271.224C185.128 271.164 184.954 271.122 184.762 271.098C184.57 271.062 184.402 271.044 184.258 271.044C183.49 271.044 182.902 271.182 182.494 271.458C182.098 271.734 181.9 272.172 181.9 272.772C181.9 273.312 182.11 273.732 182.53 274.032C182.962 274.32 183.526 274.464 184.222 274.464C184.234 274.464 184.252 274.464 184.276 274.464C184.3 274.464 184.348 274.464 184.42 274.464C184.492 274.464 184.594 274.464 184.726 274.464C184.858 274.452 185.044 274.44 185.284 274.428V271.224ZM201.117 281.286H200.145L199.875 279H189.345V270H190.785V277.74H193.863V270H195.303V277.74H198.381V270H199.821V277.74H201.117V281.286ZM209.468 278.28C209.108 278.568 208.652 278.796 208.1 278.964C207.56 279.132 206.984 279.216 206.372 279.216C205.688 279.216 205.094 279.108 204.59 278.892C204.086 278.664 203.672 278.346 203.348 277.938C203.024 277.518 202.784 277.02 202.628 276.444C202.472 275.868 202.394 275.22 202.394 274.5C202.394 272.964 202.736 271.794 203.42 270.99C204.104 270.186 205.082 269.784 206.354 269.784C206.762 269.784 207.17 269.832 207.578 269.928C207.986 270.012 208.352 270.18 208.676 270.432C209 270.684 209.264 271.044 209.468 271.512C209.672 271.968 209.774 272.574 209.774 273.33C209.774 273.726 209.738 274.164 209.666 274.644H203.888C203.888 275.172 203.942 275.64 204.05 276.048C204.158 276.456 204.326 276.804 204.554 277.092C204.782 277.368 205.076 277.584 205.436 277.74C205.808 277.884 206.258 277.956 206.786 277.956C207.194 277.956 207.602 277.884 208.01 277.74C208.418 277.596 208.724 277.428 208.928 277.236L209.468 278.28ZM206.372 271.044C205.664 271.044 205.094 271.23 204.662 271.602C204.242 271.974 203.99 272.61 203.906 273.51H208.37C208.37 272.598 208.196 271.962 207.848 271.602C207.5 271.23 207.008 271.044 206.372 271.044ZM217.294 271.26H213.478V279H212.038V270H217.294V271.26ZM217.898 274.5C217.898 272.976 218.234 271.812 218.906 271.008C219.59 270.192 220.568 269.784 221.84 269.784C222.512 269.784 223.094 269.898 223.586 270.126C224.09 270.342 224.504 270.66 224.828 271.08C225.152 271.488 225.392 271.986 225.548 272.574C225.704 273.15 225.782 273.792 225.782 274.5C225.782 276.024 225.44 277.194 224.756 278.01C224.084 278.814 223.112 279.216 221.84 279.216C221.168 279.216 220.58 279.108 220.076 278.892C219.584 278.664 219.176 278.346 218.852 277.938C218.528 277.518 218.288 277.02 218.132 276.444C217.976 275.856 217.898 275.208 217.898 274.5ZM219.392 274.5C219.392 274.956 219.434 275.394 219.518 275.814C219.614 276.234 219.758 276.6 219.95 276.912C220.142 277.224 220.394 277.476 220.706 277.668C221.018 277.86 221.396 277.956 221.84 277.956C223.472 277.968 224.288 276.816 224.288 274.5C224.288 274.032 224.24 273.588 224.144 273.168C224.06 272.748 223.922 272.382 223.73 272.07C223.538 271.758 223.286 271.512 222.974 271.332C222.662 271.14 222.284 271.044 221.84 271.044C220.208 271.032 219.392 272.184 219.392 274.5ZM240.285 273.654L240.393 271.944H240.303L239.655 273.33L237.477 276.858H236.973L234.705 273.33L234.111 271.944H234.039L234.183 273.636V279H232.851V270H234.273L236.793 274.032L237.315 275.076H237.351L237.891 273.996L240.249 270H241.689V279H240.285V273.654ZM251.022 278.28C250.662 278.568 250.206 278.796 249.654 278.964C249.114 279.132 248.538 279.216 247.926 279.216C247.242 279.216 246.648 279.108 246.144 278.892C245.64 278.664 245.226 278.346 244.902 277.938C244.578 277.518 244.338 277.02 244.182 276.444C244.026 275.868 243.948 275.22 243.948 274.5C243.948 272.964 244.29 271.794 244.974 270.99C245.658 270.186 246.636 269.784 247.908 269.784C248.316 269.784 248.724 269.832 249.132 269.928C249.54 270.012 249.906 270.18 250.23 270.432C250.554 270.684 250.818 271.044 251.022 271.512C251.226 271.968 251.328 272.574 251.328 273.33C251.328 273.726 251.292 274.164 251.22 274.644H245.442C245.442 275.172 245.496 275.64 245.604 276.048C245.712 276.456 245.88 276.804 246.108 277.092C246.336 277.368 246.63 277.584 246.99 277.74C247.362 277.884 247.812 277.956 248.34 277.956C248.748 277.956 249.156 277.884 249.564 277.74C249.972 277.596 250.278 277.428 250.482 277.236L251.022 278.28ZM247.926 271.044C247.218 271.044 246.648 271.23 246.216 271.602C245.796 271.974 245.544 272.61 245.46 273.51H249.924C249.924 272.598 249.75 271.962 249.402 271.602C249.054 271.23 248.562 271.044 247.926 271.044ZM259.538 278.406C259.178 278.67 258.752 278.868 258.26 279C257.768 279.144 257.252 279.216 256.712 279.216C256.016 279.216 255.428 279.108 254.948 278.892C254.468 278.664 254.072 278.346 253.76 277.938C253.46 277.518 253.238 277.02 253.094 276.444C252.962 275.856 252.896 275.208 252.896 274.5C252.896 272.976 253.232 271.812 253.904 271.008C254.576 270.192 255.542 269.784 256.802 269.784C257.378 269.784 257.864 269.832 258.26 269.928C258.668 270.012 259.034 270.138 259.358 270.306L258.944 271.548C258.668 271.392 258.362 271.272 258.026 271.188C257.69 271.092 257.33 271.044 256.946 271.044C255.242 271.044 254.39 272.196 254.39 274.5C254.39 274.956 254.432 275.394 254.516 275.814C254.612 276.222 254.762 276.588 254.966 276.912C255.182 277.224 255.458 277.476 255.794 277.668C256.142 277.86 256.568 277.956 257.072 277.956C257.504 277.956 257.888 277.89 258.224 277.758C258.572 277.626 258.854 277.476 259.07 277.308L259.538 278.406ZM266.982 271.26H264.156V279H262.716V271.26H259.89V270H266.982V271.26ZM273.919 275.022H269.851V279H268.411V270H269.851V273.762H273.919V270H275.359V279H273.919V275.022ZM277.628 274.5C277.628 272.976 277.964 271.812 278.636 271.008C279.32 270.192 280.298 269.784 281.57 269.784C282.242 269.784 282.824 269.898 283.316 270.126C283.82 270.342 284.234 270.66 284.558 271.08C284.882 271.488 285.122 271.986 285.278 272.574C285.434 273.15 285.512 273.792 285.512 274.5C285.512 276.024 285.17 277.194 284.486 278.01C283.814 278.814 282.842 279.216 281.57 279.216C280.898 279.216 280.31 279.108 279.806 278.892C279.314 278.664 278.906 278.346 278.582 277.938C278.258 277.518 278.018 277.02 277.862 276.444C277.706 275.856 277.628 275.208 277.628 274.5ZM279.122 274.5C279.122 274.956 279.164 275.394 279.248 275.814C279.344 276.234 279.488 276.6 279.68 276.912C279.872 277.224 280.124 277.476 280.436 277.668C280.748 277.86 281.126 277.956 281.57 277.956C283.202 277.968 284.018 276.816 284.018 274.5C284.018 274.032 283.97 273.588 283.874 273.168C283.79 272.748 283.652 272.382 283.46 272.07C283.268 271.758 283.016 271.512 282.704 271.332C282.392 271.14 282.014 271.044 281.57 271.044C279.938 271.032 279.122 272.184 279.122 274.5ZM293.038 271.26H289.222V279H287.782V270H293.038V271.26ZM293.642 274.5C293.642 272.976 293.978 271.812 294.65 271.008C295.334 270.192 296.312 269.784 297.584 269.784C298.256 269.784 298.838 269.898 299.33 270.126C299.834 270.342 300.248 270.66 300.572 271.08C300.896 271.488 301.136 271.986 301.292 272.574C301.448 273.15 301.526 273.792 301.526 274.5C301.526 276.024 301.184 277.194 300.5 278.01C299.828 278.814 298.856 279.216 297.584 279.216C296.912 279.216 296.324 279.108 295.82 278.892C295.328 278.664 294.92 278.346 294.596 277.938C294.272 277.518 294.032 277.02 293.876 276.444C293.72 275.856 293.642 275.208 293.642 274.5ZM295.136 274.5C295.136 274.956 295.178 275.394 295.262 275.814C295.358 276.234 295.502 276.6 295.694 276.912C295.886 277.224 296.138 277.476 296.45 277.668C296.762 277.86 297.14 277.956 297.584 277.956C299.216 277.968 300.032 276.816 300.032 274.5C300.032 274.032 299.984 273.588 299.888 273.168C299.804 272.748 299.666 272.382 299.474 272.07C299.282 271.758 299.03 271.512 298.718 271.332C298.406 271.14 298.028 271.044 297.584 271.044C295.952 271.032 295.136 272.184 295.136 274.5ZM150.071 292.26H146.093V300H144.653V291H151.511V300H150.071V292.26ZM154.285 291H155.275L155.545 292.08H155.617C155.893 291.66 156.247 291.342 156.679 291.126C157.123 290.898 157.627 290.784 158.191 290.784C159.391 290.784 160.285 291.138 160.873 291.846C161.461 292.554 161.755 293.712 161.755 295.32C161.755 296.076 161.653 296.76 161.449 297.372C161.257 297.972 160.981 298.482 160.621 298.902C160.261 299.322 159.823 299.646 159.307 299.874C158.803 300.102 158.239 300.216 157.615 300.216C157.171 300.216 156.817 300.186 156.553 300.126C156.301 300.078 156.025 299.988 155.725 299.856V303.6H154.285V291ZM157.921 292.044C157.309 292.044 156.823 292.206 156.463 292.53C156.115 292.842 155.869 293.322 155.725 293.97V298.434C155.941 298.602 156.187 298.734 156.463 298.83C156.739 298.914 157.105 298.956 157.561 298.956C158.389 298.956 159.043 298.65 159.523 298.038C160.015 297.414 160.261 296.502 160.261 295.302C160.261 294.81 160.219 294.366 160.135 293.97C160.051 293.562 159.913 293.22 159.721 292.944C159.541 292.656 159.301 292.434 159.001 292.278C158.713 292.122 158.353 292.044 157.921 292.044ZM163.52 295.5C163.52 293.976 163.856 292.812 164.528 292.008C165.212 291.192 166.19 290.784 167.462 290.784C168.134 290.784 168.716 290.898 169.208 291.126C169.712 291.342 170.126 291.66 170.45 292.08C170.774 292.488 171.014 292.986 171.17 293.574C171.326 294.15 171.404 294.792 171.404 295.5C171.404 297.024 171.062 298.194 170.378 299.01C169.706 299.814 168.734 300.216 167.462 300.216C166.79 300.216 166.202 300.108 165.698 299.892C165.206 299.664 164.798 299.346 164.474 298.938C164.15 298.518 163.91 298.02 163.754 297.444C163.598 296.856 163.52 296.208 163.52 295.5ZM165.014 295.5C165.014 295.956 165.056 296.394 165.14 296.814C165.236 297.234 165.38 297.6 165.572 297.912C165.764 298.224 166.016 298.476 166.328 298.668C166.64 298.86 167.018 298.956 167.462 298.956C169.094 298.968 169.91 297.816 169.91 295.5C169.91 295.032 169.862 294.588 169.766 294.168C169.682 293.748 169.544 293.382 169.352 293.07C169.16 292.758 168.908 292.512 168.596 292.332C168.284 292.14 167.906 292.044 167.462 292.044C165.83 292.032 165.014 293.184 165.014 295.5ZM179.29 294.672L179.344 293.556H179.29L178.552 294.708L174.502 300H173.674V291H175.114V296.49L175.06 297.552H175.132L175.834 296.436L179.884 291H180.73V300H179.29V294.672ZM184.364 295.986V294.816H185.624C185.84 294.816 186.05 294.78 186.254 294.708C186.47 294.636 186.662 294.54 186.83 294.42C186.998 294.288 187.13 294.138 187.226 293.97C187.334 293.79 187.388 293.604 187.388 293.412C187.388 292.944 187.226 292.614 186.902 292.422C186.578 292.23 186.092 292.134 185.444 292.134C184.976 292.134 184.544 292.206 184.148 292.35C183.764 292.494 183.464 292.632 183.248 292.764L182.834 291.648C183.194 291.444 183.614 291.264 184.094 291.108C184.586 290.952 185.168 290.874 185.84 290.874C187.832 290.874 188.828 291.612 188.828 293.088C188.828 293.508 188.69 293.922 188.414 294.33C188.15 294.726 187.766 295.008 187.262 295.176V295.248C187.97 295.38 188.462 295.632 188.738 296.004C189.026 296.376 189.17 296.868 189.17 297.48C189.17 297.864 189.092 298.218 188.936 298.542C188.78 298.866 188.546 299.148 188.234 299.388C187.922 299.628 187.526 299.82 187.046 299.964C186.578 300.096 186.032 300.162 185.408 300.162C184.796 300.162 184.286 300.108 183.878 300C183.482 299.892 183.122 299.76 182.798 299.604L183.212 298.416C183.488 298.572 183.818 298.692 184.202 298.776C184.598 298.86 185.024 298.902 185.48 298.902C186.212 298.902 186.77 298.776 187.154 298.524C187.538 298.272 187.73 297.888 187.73 297.372C187.73 296.94 187.55 296.604 187.19 296.364C186.83 296.112 186.236 295.986 185.408 295.986H184.364ZM191.446 291.018C191.866 290.994 192.304 290.964 192.76 290.928C193.228 290.892 193.804 290.874 194.488 290.874C195.676 290.874 196.528 291.06 197.044 291.432C197.56 291.792 197.818 292.344 197.818 293.088C197.818 293.508 197.692 293.922 197.44 294.33C197.2 294.726 196.798 295.02 196.234 295.212V295.284C196.942 295.416 197.44 295.662 197.728 296.022C198.016 296.382 198.16 296.862 198.16 297.462C198.16 298.398 197.824 299.076 197.152 299.496C196.48 299.916 195.472 300.126 194.128 300.126C193.624 300.126 193.156 300.108 192.724 300.072C192.292 300.048 191.866 300.018 191.446 299.982V291.018ZM192.886 298.794C193.114 298.818 193.336 298.836 193.552 298.848C193.78 298.86 194.044 298.866 194.344 298.866C195.148 298.866 195.742 298.752 196.126 298.524C196.522 298.296 196.72 297.906 196.72 297.354C196.72 296.922 196.552 296.574 196.216 296.31C195.892 296.034 195.31 295.896 194.47 295.896H192.886V298.794ZM194.65 294.798C194.866 294.798 195.076 294.762 195.28 294.69C195.484 294.618 195.664 294.522 195.82 294.402C195.988 294.27 196.12 294.12 196.216 293.952C196.324 293.784 196.378 293.604 196.378 293.412C196.378 292.932 196.234 292.602 195.946 292.422C195.658 292.23 195.154 292.134 194.434 292.134C194.05 292.134 193.744 292.14 193.516 292.152C193.3 292.164 193.09 292.176 192.886 292.188V294.798H194.65ZM199.924 295.5C199.924 293.976 200.26 292.812 200.932 292.008C201.616 291.192 202.594 290.784 203.866 290.784C204.538 290.784 205.12 290.898 205.612 291.126C206.116 291.342 206.53 291.66 206.854 292.08C207.178 292.488 207.418 292.986 207.574 293.574C207.73 294.15 207.808 294.792 207.808 295.5C207.808 297.024 207.466 298.194 206.782 299.01C206.11 299.814 205.138 300.216 203.866 300.216C203.194 300.216 202.606 300.108 202.102 299.892C201.61 299.664 201.202 299.346 200.878 298.938C200.554 298.518 200.314 298.02 200.158 297.444C200.002 296.856 199.924 296.208 199.924 295.5ZM201.418 295.5C201.418 295.956 201.46 296.394 201.544 296.814C201.64 297.234 201.784 297.6 201.976 297.912C202.168 298.224 202.42 298.476 202.732 298.668C203.044 298.86 203.422 298.956 203.866 298.956C205.498 298.968 206.314 297.816 206.314 295.5C206.314 295.032 206.266 294.588 206.17 294.168C206.086 293.748 205.948 293.382 205.756 293.07C205.564 292.758 205.312 292.512 205 292.332C204.688 292.14 204.31 292.044 203.866 292.044C202.234 292.032 201.418 293.184 201.418 295.5ZM217.929 302.286H216.957L216.687 300H209.919L209.649 302.286H208.677V298.74H209.739C209.835 298.608 209.961 298.374 210.117 298.038C210.273 297.69 210.423 297.21 210.567 296.598C210.723 295.974 210.855 295.206 210.963 294.294C211.083 293.37 211.155 292.272 211.179 291H216.615V298.74H217.929V302.286ZM215.175 298.74V292.26H212.475C212.451 292.764 212.409 293.316 212.349 293.916C212.289 294.504 212.205 295.098 212.097 295.698C212.001 296.286 211.875 296.844 211.719 297.372C211.563 297.9 211.383 298.356 211.179 298.74H215.175ZM225.849 299.406C225.489 299.67 225.063 299.868 224.571 300C224.079 300.144 223.563 300.216 223.023 300.216C222.327 300.216 221.739 300.108 221.259 299.892C220.779 299.664 220.383 299.346 220.071 298.938C219.771 298.518 219.549 298.02 219.405 297.444C219.273 296.856 219.207 296.208 219.207 295.5C219.207 293.976 219.543 292.812 220.215 292.008C220.887 291.192 221.853 290.784 223.113 290.784C223.689 290.784 224.175 290.832 224.571 290.928C224.979 291.012 225.345 291.138 225.669 291.306L225.255 292.548C224.979 292.392 224.673 292.272 224.337 292.188C224.001 292.092 223.641 292.044 223.257 292.044C221.553 292.044 220.701 293.196 220.701 295.5C220.701 295.956 220.743 296.394 220.827 296.814C220.923 297.222 221.073 297.588 221.277 297.912C221.493 298.224 221.769 298.476 222.105 298.668C222.453 298.86 222.879 298.956 223.383 298.956C223.815 298.956 224.199 298.89 224.535 298.758C224.883 298.626 225.165 298.476 225.381 298.308L225.849 299.406ZM233.293 292.26H230.467V300H229.027V292.26H226.201V291H233.293V292.26ZM234.723 291.018C235.143 290.994 235.581 290.964 236.037 290.928C236.505 290.892 237.081 290.874 237.765 290.874C238.953 290.874 239.805 291.06 240.321 291.432C240.837 291.792 241.095 292.344 241.095 293.088C241.095 293.508 240.969 293.922 240.717 294.33C240.477 294.726 240.075 295.02 239.511 295.212V295.284C240.219 295.416 240.717 295.662 241.005 296.022C241.293 296.382 241.437 296.862 241.437 297.462C241.437 298.398 241.101 299.076 240.429 299.496C239.757 299.916 238.749 300.126 237.405 300.126C236.901 300.126 236.433 300.108 236.001 300.072C235.569 300.048 235.143 300.018 234.723 299.982V291.018ZM236.163 298.794C236.391 298.818 236.613 298.836 236.829 298.848C237.057 298.86 237.321 298.866 237.621 298.866C238.425 298.866 239.019 298.752 239.403 298.524C239.799 298.296 239.997 297.906 239.997 297.354C239.997 296.922 239.829 296.574 239.493 296.31C239.169 296.034 238.587 295.896 237.747 295.896H236.163V298.794ZM237.927 294.798C238.143 294.798 238.353 294.762 238.557 294.69C238.761 294.618 238.941 294.522 239.097 294.402C239.265 294.27 239.397 294.12 239.493 293.952C239.601 293.784 239.655 293.604 239.655 293.412C239.655 292.932 239.511 292.602 239.223 292.422C238.935 292.23 238.431 292.134 237.711 292.134C237.327 292.134 237.021 292.14 236.793 292.152C236.577 292.164 236.367 292.176 236.163 292.188V294.798H237.927ZM243.561 291.666C244.017 291.39 244.545 291.186 245.145 291.054C245.757 290.922 246.393 290.856 247.053 290.856C247.677 290.856 248.175 290.94 248.547 291.108C248.931 291.276 249.219 291.498 249.411 291.774C249.615 292.038 249.747 292.332 249.807 292.656C249.879 292.98 249.915 293.304 249.915 293.628C249.915 294.348 249.897 295.05 249.861 295.734C249.825 296.418 249.807 297.066 249.807 297.678C249.807 298.122 249.825 298.542 249.861 298.938C249.897 299.334 249.963 299.7 250.059 300.036H248.997L248.619 298.776H248.529C248.421 298.944 248.283 299.112 248.115 299.28C247.959 299.436 247.767 299.58 247.539 299.712C247.311 299.832 247.047 299.934 246.747 300.018C246.447 300.102 246.105 300.144 245.721 300.144C245.337 300.144 244.977 300.084 244.641 299.964C244.317 299.844 244.035 299.676 243.795 299.46C243.555 299.232 243.363 298.962 243.219 298.65C243.087 298.338 243.021 297.984 243.021 297.588C243.021 297.06 243.129 296.622 243.345 296.274C243.561 295.914 243.861 295.632 244.245 295.428C244.641 295.212 245.109 295.062 245.649 294.978C246.201 294.882 246.807 294.834 247.467 294.834C247.635 294.834 247.797 294.834 247.953 294.834C248.121 294.834 248.289 294.846 248.457 294.87C248.493 294.51 248.511 294.186 248.511 293.898C248.511 293.238 248.379 292.776 248.115 292.512C247.851 292.248 247.371 292.116 246.675 292.116C246.471 292.116 246.249 292.134 246.009 292.17C245.781 292.194 245.541 292.236 245.289 292.296C245.049 292.344 244.815 292.41 244.587 292.494C244.371 292.566 244.179 292.65 244.011 292.746L243.561 291.666ZM246.117 298.884C246.453 298.884 246.753 298.842 247.017 298.758C247.281 298.662 247.509 298.548 247.701 298.416C247.893 298.272 248.049 298.116 248.169 297.948C248.301 297.78 248.397 297.618 248.457 297.462V295.968C248.289 295.956 248.115 295.95 247.935 295.95C247.767 295.938 247.599 295.932 247.431 295.932C247.059 295.932 246.693 295.956 246.333 296.004C245.985 296.04 245.673 296.118 245.397 296.238C245.133 296.346 244.917 296.502 244.749 296.706C244.593 296.898 244.515 297.144 244.515 297.444C244.515 297.864 244.665 298.212 244.965 298.488C245.265 298.752 245.649 298.884 246.117 298.884ZM253.535 287.4H255.029V293.646L254.723 296.814H253.841L253.535 293.646V287.4ZM253.229 299.172C253.229 298.848 253.319 298.596 253.499 298.416C253.691 298.224 253.943 298.128 254.255 298.128C254.579 298.128 254.837 298.224 255.029 298.416C255.221 298.596 255.317 298.848 255.317 299.172C255.317 299.484 255.221 299.736 255.029 299.928C254.837 300.12 254.579 300.216 254.255 300.216C253.943 300.216 253.691 300.12 253.499 299.928C253.319 299.736 253.229 299.484 253.229 299.172Z" fill="#333333"/>
</svg>
